<svg width="28" height="28" viewBox="0 0 28 28" fill="none" xmlns="http://www.w3.org/2000/svg">
<rect width="28" height="28" rx="14" fill="#76881D"/>
<g clip-path="url(#clip0_44_8005)">
<path d="M13.1633 20.9383C13.1378 20.8703 13.129 20.8125 13.1376 20.7657C13.1462 20.7193 13.1165 20.6808 13.0484 20.6511C12.9803 20.6214 12.9463 20.5979 12.9463 20.5811C12.9463 20.5641 12.8974 20.5513 12.7996 20.5429C12.7017 20.5344 12.6529 20.53 12.6529 20.53H12.4871H12.3469H8.67339C8.11218 20.53 7.63169 20.3304 7.23198 19.9304C6.83236 19.5308 6.63257 19.0504 6.63257 18.4893V9.50963C6.63257 8.94842 6.83232 8.46812 7.23198 8.06845C7.63169 7.66874 8.11218 7.46882 8.67339 7.46882H12.755C12.8655 7.46882 12.9525 7.44139 13.0164 7.38599C13.0801 7.33073 13.1225 7.24777 13.1439 7.13724C13.1651 7.02671 13.178 6.92691 13.1822 6.8376C13.1864 6.74838 13.1844 6.63562 13.1758 6.49959C13.1674 6.3636 13.1631 6.27858 13.1631 6.2444C13.1631 6.13387 13.1227 6.0384 13.042 5.95745C12.9612 5.87686 12.8655 5.83643 12.755 5.83643H8.67339C7.66158 5.83643 6.79631 6.1957 6.0777 6.91422C5.35928 7.63273 5 8.49787 5 9.50977V18.4893C5 19.5011 5.35928 20.3664 6.0777 21.0847C6.79631 21.8035 7.66158 22.1628 8.67339 22.1628H12.7552C12.8657 22.1628 12.9527 22.135 13.0166 22.08C13.0803 22.0246 13.1227 21.9418 13.1441 21.8311C13.1653 21.7207 13.1781 21.6204 13.1824 21.5315C13.1866 21.4422 13.1846 21.3296 13.176 21.1936C13.1675 21.0574 13.1633 20.9724 13.1633 20.9383Z" fill="#FBFDF8"/>
<path d="M24.7572 13.4259L17.8185 6.48695C17.657 6.32558 17.4656 6.24463 17.2445 6.24463C17.0235 6.24463 16.8321 6.32558 16.6704 6.48695C16.5088 6.64854 16.4281 6.84006 16.4281 7.06103V10.7345H10.7139C10.4926 10.7345 10.3014 10.8155 10.1398 10.9768C9.97819 11.1384 9.89746 11.3298 9.89746 11.5509V16.4489C9.89746 16.67 9.97819 16.8614 10.1398 17.0229C10.3015 17.1841 10.4928 17.2653 10.7139 17.2653H16.4282V20.9388C16.4282 21.1597 16.5089 21.3512 16.6705 21.5127C16.8321 21.6743 17.0234 21.7552 17.2446 21.7552C17.4656 21.7552 17.657 21.6743 17.8185 21.5127L24.7572 14.5741C24.9188 14.4124 24.9996 14.2212 24.9996 14.0001C24.9996 13.779 24.9188 13.5875 24.7572 13.4259Z" fill="#FBFDF8"/>
</g>
<defs>
<clipPath id="clip0_44_8005">
<rect width="20" height="20" fill="white" transform="translate(5 4)"/>
</clipPath>
</defs>
</svg>
