<svg width="28" height="28" viewBox="0 0 28 28" fill="none" xmlns="http://www.w3.org/2000/svg">
<rect width="28" height="28" rx="14" fill="#76881D"/>
<path d="M5.79554 17.1812C4.37402 17.1812 4.37402 18.0416 4.37402 18.4882C4.37402 21.5034 7.52267 21.7802 11.4068 21.7802H16.593C20.4771 21.7802 23.6258 21.254 23.6258 18.4882C23.6258 18.0416 23.4896 17.1812 22.2177 17.1812H5.79554Z" fill="#FBFDF8"/>
<path d="M24 14.8708C24 15.3646 23.596 15.7686 23.1022 15.7686H4.89779C4.40399 15.7686 4 15.3646 4 14.8708V14.1976C4 13.7038 4.40399 13.2998 4.89779 13.2998H23.1022C23.596 13.2998 24 13.7038 24 14.1976V14.8708Z" fill="#FBFDF8"/>
<path d="M14.3486 4.2207H13.6512C9.7672 4.2207 4.37402 6.62124 4.37402 10.5053C4.37402 10.952 4.51018 11.8123 5.78202 11.8123H22.2043C23.6258 11.8123 23.6258 10.952 23.6258 10.5053C23.6258 6.62124 18.2326 4.2207 14.3486 4.2207ZM9.78599 9.20369C9.41484 9.8227 8.77559 10.1215 8.35815 9.87123C7.9407 9.62087 7.90319 8.91628 8.27434 8.29727C8.6455 7.67833 9.28475 7.37944 9.70219 7.6298C10.1196 7.88009 10.1571 8.58475 9.78599 9.20369ZM13.9999 10.1151C13.5351 10.1151 13.1582 9.50416 13.1582 8.75051C13.1582 7.99686 13.5351 7.3859 13.9999 7.3859C14.4648 7.3859 14.8416 7.99686 14.8416 8.75051C14.8416 9.50416 14.4648 10.1151 13.9999 10.1151ZM19.6417 9.87123C19.2242 10.1215 18.585 9.8227 18.2138 9.20369C17.8427 8.58475 17.8802 7.88009 18.2976 7.6298C18.7151 7.37944 19.3543 7.67833 19.7255 8.29727C20.0967 8.91628 20.0592 9.62087 19.6417 9.87123Z" fill="#FBFDF8"/>
</svg>
