<svg width="32" height="32" viewBox="0 0 32 32" fill="none" xmlns="http://www.w3.org/2000/svg">
<g clip-path="url(#clip0_3_16)">
<path d="M31.3333 12.0003H25.8664L19.6484 2.95608C19.4399 2.65271 19.0249 2.57577 18.7215 2.78427L17.6225 3.53958C17.3191 3.74814 17.2421 4.16321 17.4507 4.46664L22.6301 12.0003H9.36987L14.5493 4.46664C14.7579 4.16321 14.681 3.74814 14.3775 3.53958L13.2784 2.78427C12.9751 2.57577 12.56 2.65271 12.3515 2.95608L6.13356 12.0003H0.666687C0.2985 12.0003 0 12.2988 0 12.667V14.0003C0 14.3685 0.2985 14.667 0.666687 14.667H1.5125L5.58794 27.4756C5.94212 28.587 6.96294 29.3337 8.12894 29.3337H23.8711C25.0371 29.3337 26.058 28.587 26.4121 27.475L30.4875 14.667H31.3334C31.7016 14.667 32.0001 14.3685 32.0001 14.0003V12.667C32 12.2988 31.7015 12.0003 31.3333 12.0003Z" fill="#76881D"/>
</g>
<defs>
<clipPath id="clip0_3_16">
<rect width="32" height="32" fill="white"/>
</clipPath>
</defs>
</svg>
