<svg width="36" height="36" viewBox="0 0 36 36" fill="none" xmlns="http://www.w3.org/2000/svg">
<g clip-path="url(#clip0_132_3136)">
<path d="M18.0004 0L6.72241 18L18.0004 36C27.9415 36 36.0004 27.9411 36.0004 18C36.0004 8.05887 27.9415 0 18.0004 0Z" fill="#FBFDF8"/>
<path d="M0 18C0 27.9411 8.05887 36 18 36V0C8.05887 0 0 8.05887 0 18Z" fill="#FBFDF8"/>
<path d="M18 4.21875L13.3743 11.6016L18 18.9844C22.0774 18.9844 25.3828 15.679 25.3828 11.6016C25.3828 7.52414 22.0774 4.21875 18 4.21875Z" fill="#76881D"/>
<path d="M10.6172 11.6016C10.6172 15.679 13.9226 18.9844 18 18.9844V4.21875C13.9226 4.21875 10.6172 7.52414 10.6172 11.6016Z" fill="#76881D"/>
<path d="M29.8581 23.5858C28.4566 22.002 26.4409 21.0938 24.3281 21.0938H18L13.7812 26.4375L18 31.7812C22.9445 31.7812 27.5369 29.1087 29.985 24.8064L30.3581 24.1507L29.8581 23.5858Z" fill="#76881D"/>
<path d="M11.6718 21.0938C9.55896 21.0938 7.54331 22.002 6.14177 23.5858L5.64185 24.1508L6.01492 24.8065C8.46299 29.1087 13.0554 31.7812 17.9999 31.7812V21.0938H11.6718Z" fill="#76881D"/>
</g>
<defs>
<clipPath id="clip0_132_3136">
<rect width="36" height="36" fill="white"/>
</clipPath>
</defs>
</svg>
